<svg width="48" height="48" viewBox="0 0 48 48" fill="none" xmlns="http://www.w3.org/2000/svg">
<path d="M18.846 22.3845H16.9615C16.7058 22.3845 16.4945 22.3012 16.3275 22.1345C16.1605 21.9679 16.077 21.757 16.077 21.502C16.077 21.2467 16.1605 21.0352 16.3275 20.8675C16.4945 20.6995 16.7058 20.6155 16.9615 20.6155H19.731C19.9863 20.6155 20.1975 20.699 20.3645 20.866C20.5318 21.033 20.6155 21.2444 20.6155 21.5V30.5C20.6155 30.7557 20.5322 30.967 20.3655 31.134C20.1985 31.301 19.9875 31.3845 19.7325 31.3845C19.4775 31.3845 19.266 31.301 19.098 31.134C18.93 30.967 18.846 30.7557 18.846 30.5V22.3845ZM25.3845 31.3845C24.8178 31.3845 24.3428 31.1929 23.9595 30.8095C23.5762 30.4262 23.3845 29.9512 23.3845 29.3845V22.6155C23.3845 22.0489 23.5762 21.5739 23.9595 21.1905C24.3428 20.8072 24.8178 20.6155 25.3845 20.6155H28.923C29.4897 20.6155 29.9647 20.8072 30.348 21.1905C30.7313 21.5739 30.923 22.0489 30.923 22.6155V29.3845C30.923 29.9512 30.7313 30.4262 30.348 30.8095C29.9647 31.1929 29.4897 31.3845 28.923 31.3845H25.3845ZM25.6155 29.6155H28.6925C28.8462 29.6155 28.9615 29.577 29.0385 29.5C29.1155 29.423 29.154 29.3077 29.154 29.154V22.846C29.154 22.6924 29.1155 22.577 29.0385 22.5C28.9615 22.423 28.8462 22.3845 28.6925 22.3845H25.6155C25.4615 22.3845 25.346 22.423 25.269 22.5C25.1923 22.577 25.154 22.6924 25.154 22.846V29.154C25.154 29.3077 25.1923 29.423 25.269 29.5C25.346 29.577 25.4615 29.6155 25.6155 29.6155ZM24.002 42C21.7827 42 19.7032 41.5827 17.7635 40.748C15.8238 39.9134 14.129 38.771 12.679 37.321C11.229 35.871 10.0867 34.1767 9.252 32.238C8.41733 30.2994 8 28.22 8 26C8 25.7167 8.096 25.4792 8.288 25.2875C8.48 25.0959 8.71783 25 9.0015 25C9.28517 25 9.5225 25.0959 9.7135 25.2875C9.9045 25.4792 10 25.7167 10 26C10 29.9 11.3583 33.2084 14.075 35.925C16.7917 38.6417 20.1 40 24 40C27.9 40 31.2083 38.6417 33.925 35.925C36.6417 33.2084 38 29.9 38 26C38 22.1 36.6417 18.7917 33.925 16.075C31.2083 13.3584 27.9 12 24 12H23.2385L25.7845 14.546C25.9795 14.741 26.0815 14.9705 26.0905 15.2345C26.0995 15.4989 26.0003 15.7412 25.793 15.9615C25.567 16.1822 25.3263 16.2944 25.071 16.298C24.816 16.302 24.5782 16.1937 24.3575 15.973L20.5155 12.0925C20.1922 11.7692 20.0305 11.3922 20.0305 10.9615C20.0305 10.5309 20.1922 10.154 20.5155 9.83105L24.4345 5.95005C24.6295 5.75505 24.861 5.65305 25.129 5.64405C25.397 5.63538 25.644 5.74121 25.87 5.96155C26.0773 6.18221 26.1828 6.41805 26.1865 6.66905C26.1905 6.92038 26.0822 7.15638 25.8615 7.37705L23.2385 10H24C26.22 10 28.2993 10.4174 30.238 11.252C32.1767 12.0867 33.871 13.229 35.321 14.679C36.771 16.129 37.9133 17.8232 38.748 19.7615C39.5827 21.6995 40 23.7784 40 25.998C40 28.2174 39.5827 30.2969 38.748 32.2365C37.9133 34.1762 36.771 35.871 35.321 37.321C33.871 38.771 32.1768 39.9134 30.2385 40.748C28.3005 41.5827 26.2217 42 24.002 42Z" fill="#1C1C1E"/>
</svg>
