<svg width="28" height="28" viewBox="0 0 28 28" fill="none" xmlns="http://www.w3.org/2000/svg">
<path d="M9.12917 15.1666L14.8458 20.8833C15.0792 21.1166 15.191 21.3889 15.1813 21.7C15.1715 22.0111 15.05 22.2833 14.8167 22.5166C14.5833 22.7305 14.3111 22.8423 14 22.8521C13.6889 22.8618 13.4167 22.75 13.1833 22.5166L5.48334 14.8166C5.36667 14.7 5.28403 14.5736 5.23542 14.4375C5.18681 14.3014 5.16251 14.1555 5.16251 14C5.16251 13.8444 5.18681 13.6986 5.23542 13.5625C5.28403 13.4264 5.36667 13.3 5.48334 13.1833L13.1833 5.48331C13.3972 5.26942 13.6646 5.16248 13.9854 5.16248C14.3063 5.16248 14.5833 5.26942 14.8167 5.48331C15.05 5.71664 15.1667 5.99373 15.1667 6.31456C15.1667 6.63539 15.05 6.91248 14.8167 7.14581L9.12917 12.8333H22.1667C22.4972 12.8333 22.7743 12.9451 22.9979 13.1687C23.2215 13.3923 23.3333 13.6694 23.3333 14C23.3333 14.3305 23.2215 14.6076 22.9979 14.8312C22.7743 15.0548 22.4972 15.1666 22.1667 15.1666H9.12917Z" fill="#1C1C1E"/>
</svg>
