<svg width="40" height="40" viewBox="0 0 40 40" fill="none" xmlns="http://www.w3.org/2000/svg">
<path d="M11.6667 28.3333V11.6667C11.6667 11.1945 11.8264 10.7986 12.1458 10.4792C12.4653 10.1597 12.8611 10 13.3333 10C13.8056 10 14.2014 10.1597 14.5208 10.4792C14.8403 10.7986 15 11.1945 15 11.6667V28.3333C15 28.8056 14.8403 29.2014 14.5208 29.5208C14.2014 29.8403 13.8056 30 13.3333 30C12.8611 30 12.4653 29.8403 12.1458 29.5208C11.8264 29.2014 11.6667 28.8056 11.6667 28.3333ZM18.3333 35V5.00001C18.3333 4.52779 18.4931 4.13195 18.8125 3.81251C19.1319 3.49307 19.5278 3.33334 20 3.33334C20.4722 3.33334 20.8681 3.49307 21.1875 3.81251C21.5069 4.13195 21.6667 4.52779 21.6667 5.00001V35C21.6667 35.4722 21.5069 35.8681 21.1875 36.1875C20.8681 36.507 20.4722 36.6667 20 36.6667C19.5278 36.6667 19.1319 36.507 18.8125 36.1875C18.4931 35.8681 18.3333 35.4722 18.3333 35ZM5 21.6667V18.3333C5 17.8611 5.15972 17.4653 5.47917 17.1458C5.79861 16.8264 6.19444 16.6667 6.66667 16.6667C7.13889 16.6667 7.53472 16.8264 7.85417 17.1458C8.17361 17.4653 8.33333 17.8611 8.33333 18.3333V21.6667C8.33333 22.1389 8.17361 22.5347 7.85417 22.8542C7.53472 23.1736 7.13889 23.3333 6.66667 23.3333C6.19444 23.3333 5.79861 23.1736 5.47917 22.8542C5.15972 22.5347 5 22.1389 5 21.6667ZM25 28.3333V11.6667C25 11.1945 25.1597 10.7986 25.4792 10.4792C25.7986 10.1597 26.1944 10 26.6667 10C27.1389 10 27.5347 10.1597 27.8542 10.4792C28.1736 10.7986 28.3333 11.1945 28.3333 11.6667V28.3333C28.3333 28.8056 28.1736 29.2014 27.8542 29.5208C27.5347 29.8403 27.1389 30 26.6667 30C26.1944 30 25.7986 29.8403 25.4792 29.5208C25.1597 29.2014 25 28.8056 25 28.3333ZM31.6667 21.6667V18.3333C31.6667 17.8611 31.8264 17.4653 32.1458 17.1458C32.4653 16.8264 32.8611 16.6667 33.3333 16.6667C33.8056 16.6667 34.2014 16.8264 34.5208 17.1458C34.8403 17.4653 35 17.8611 35 18.3333V21.6667C35 22.1389 34.8403 22.5347 34.5208 22.8542C34.2014 23.1736 33.8056 23.3333 33.3333 23.3333C32.8611 23.3333 32.4653 23.1736 32.1458 22.8542C31.8264 22.5347 31.6667 22.1389 31.6667 21.6667Z" fill="white" fill-opacity="0.25"/>
</svg>
