<svg width="40" height="40" viewBox="0 0 40 40" fill="none" xmlns="http://www.w3.org/2000/svg">
<path d="M11.6667 28.3333V11.6666C11.6667 11.1944 11.8264 10.7985 12.1458 10.4791C12.4653 10.1596 12.8611 9.99992 13.3333 9.99992C13.8056 9.99992 14.2014 10.1596 14.5208 10.4791C14.8403 10.7985 15 11.1944 15 11.6666V28.3333C15 28.8055 14.8403 29.2013 14.5208 29.5208C14.2014 29.8402 13.8056 29.9999 13.3333 29.9999C12.8611 29.9999 12.4653 29.8402 12.1458 29.5208C11.8264 29.2013 11.6667 28.8055 11.6667 28.3333ZM18.3333 34.9999V4.99992C18.3333 4.5277 18.4931 4.13186 18.8125 3.81242C19.1319 3.49297 19.5278 3.33325 20 3.33325C20.4722 3.33325 20.8681 3.49297 21.1875 3.81242C21.5069 4.13186 21.6667 4.5277 21.6667 4.99992V34.9999C21.6667 35.4721 21.5069 35.868 21.1875 36.1874C20.8681 36.5069 20.4722 36.6666 20 36.6666C19.5278 36.6666 19.1319 36.5069 18.8125 36.1874C18.4931 35.868 18.3333 35.4721 18.3333 34.9999ZM5 21.6666V18.3333C5 17.861 5.15972 17.4652 5.47917 17.1458C5.79861 16.8263 6.19444 16.6666 6.66667 16.6666C7.13889 16.6666 7.53472 16.8263 7.85417 17.1458C8.17361 17.4652 8.33333 17.861 8.33333 18.3333V21.6666C8.33333 22.1388 8.17361 22.5346 7.85417 22.8541C7.53472 23.1735 7.13889 23.3333 6.66667 23.3333C6.19444 23.3333 5.79861 23.1735 5.47917 22.8541C5.15972 22.5346 5 22.1388 5 21.6666ZM25 28.3333V11.6666C25 11.1944 25.1597 10.7985 25.4792 10.4791C25.7986 10.1596 26.1944 9.99992 26.6667 9.99992C27.1389 9.99992 27.5347 10.1596 27.8542 10.4791C28.1736 10.7985 28.3333 11.1944 28.3333 11.6666V28.3333C28.3333 28.8055 28.1736 29.2013 27.8542 29.5208C27.5347 29.8402 27.1389 29.9999 26.6667 29.9999C26.1944 29.9999 25.7986 29.8402 25.4792 29.5208C25.1597 29.2013 25 28.8055 25 28.3333ZM31.6667 21.6666V18.3333C31.6667 17.861 31.8264 17.4652 32.1458 17.1458C32.4653 16.8263 32.8611 16.6666 33.3333 16.6666C33.8056 16.6666 34.2014 16.8263 34.5208 17.1458C34.8403 17.4652 35 17.861 35 18.3333V21.6666C35 22.1388 34.8403 22.5346 34.5208 22.8541C34.2014 23.1735 33.8056 23.3333 33.3333 23.3333C32.8611 23.3333 32.4653 23.1735 32.1458 22.8541C31.8264 22.5346 31.6667 22.1388 31.6667 21.6666Z" fill="#FFCC00"/>
</svg>
