<svg width="21" height="20" viewBox="0 0 21 20" fill="none" xmlns="http://www.w3.org/2000/svg">
<path d="M7.33332 14.1667C7.56943 14.1667 7.76735 14.0868 7.92707 13.9271C8.0868 13.7674 8.16666 13.5694 8.16666 13.3333C8.16666 13.0972 8.0868 12.8993 7.92707 12.7396C7.76735 12.5799 7.56943 12.5 7.33332 12.5C7.09721 12.5 6.8993 12.5799 6.73957 12.7396C6.57985 12.8993 6.49999 13.0972 6.49999 13.3333C6.49999 13.5694 6.57985 13.7674 6.73957 13.9271C6.8993 14.0868 7.09721 14.1667 7.33332 14.1667ZM7.33332 10.8333C7.56943 10.8333 7.76735 10.7535 7.92707 10.5938C8.0868 10.434 8.16666 10.2361 8.16666 10C8.16666 9.76389 8.0868 9.56597 7.92707 9.40625C7.76735 9.24653 7.56943 9.16667 7.33332 9.16667C7.09721 9.16667 6.8993 9.24653 6.73957 9.40625C6.57985 9.56597 6.49999 9.76389 6.49999 10C6.49999 10.2361 6.57985 10.434 6.73957 10.5938C6.8993 10.7535 7.09721 10.8333 7.33332 10.8333ZM7.33332 7.5C7.56943 7.5 7.76735 7.42014 7.92707 7.26042C8.0868 7.10069 8.16666 6.90278 8.16666 6.66667C8.16666 6.43056 8.0868 6.23264 7.92707 6.07292C7.76735 5.91319 7.56943 5.83333 7.33332 5.83333C7.09721 5.83333 6.8993 5.91319 6.73957 6.07292C6.57985 6.23264 6.49999 6.43056 6.49999 6.66667C6.49999 6.90278 6.57985 7.10069 6.73957 7.26042C6.8993 7.42014 7.09721 7.5 7.33332 7.5ZM10.6667 14.1667H14C14.2361 14.1667 14.434 14.0868 14.5937 13.9271C14.7535 13.7674 14.8333 13.5694 14.8333 13.3333C14.8333 13.0972 14.7535 12.8993 14.5937 12.7396C14.434 12.5799 14.2361 12.5 14 12.5H10.6667C10.4305 12.5 10.2326 12.5799 10.0729 12.7396C9.91318 12.8993 9.83332 13.0972 9.83332 13.3333C9.83332 13.5694 9.91318 13.7674 10.0729 13.9271C10.2326 14.0868 10.4305 14.1667 10.6667 14.1667ZM10.6667 10.8333H14C14.2361 10.8333 14.434 10.7535 14.5937 10.5938C14.7535 10.434 14.8333 10.2361 14.8333 10C14.8333 9.76389 14.7535 9.56597 14.5937 9.40625C14.434 9.24653 14.2361 9.16667 14 9.16667H10.6667C10.4305 9.16667 10.2326 9.24653 10.0729 9.40625C9.91318 9.56597 9.83332 9.76389 9.83332 10C9.83332 10.2361 9.91318 10.434 10.0729 10.5938C10.2326 10.7535 10.4305 10.8333 10.6667 10.8333ZM10.6667 7.5H14C14.2361 7.5 14.434 7.42014 14.5937 7.26042C14.7535 7.10069 14.8333 6.90278 14.8333 6.66667C14.8333 6.43056 14.7535 6.23264 14.5937 6.07292C14.434 5.91319 14.2361 5.83333 14 5.83333H10.6667C10.4305 5.83333 10.2326 5.91319 10.0729 6.07292C9.91318 6.23264 9.83332 6.43056 9.83332 6.66667C9.83332 6.90278 9.91318 7.10069 10.0729 7.26042C10.2326 7.42014 10.4305 7.5 10.6667 7.5ZM4.83332 17.5C4.37499 17.5 3.98263 17.3368 3.65624 17.0104C3.32985 16.684 3.16666 16.2917 3.16666 15.8333V4.16667C3.16666 3.70833 3.32985 3.31597 3.65624 2.98958C3.98263 2.66319 4.37499 2.5 4.83332 2.5H16.5C16.9583 2.5 17.3507 2.66319 17.6771 2.98958C18.0035 3.31597 18.1667 3.70833 18.1667 4.16667V15.8333C18.1667 16.2917 18.0035 16.684 17.6771 17.0104C17.3507 17.3368 16.9583 17.5 16.5 17.5H4.83332ZM4.83332 15.8333H16.5V4.16667H4.83332V15.8333Z" fill="#1C1C1E"/>
</svg>
