<svg width="20" height="20" viewBox="0 0 20 20" fill="none" xmlns="http://www.w3.org/2000/svg">
<path d="M10.5 9.99984L7.24998 6.74984C7.0972 6.59706 7.02081 6.40262 7.02081 6.1665C7.02081 5.93039 7.0972 5.73595 7.24998 5.58317C7.40276 5.43039 7.5972 5.354 7.83331 5.354C8.06942 5.354 8.26387 5.43039 8.41665 5.58317L12.25 9.4165C12.3333 9.49984 12.3923 9.59012 12.4271 9.68734C12.4618 9.78456 12.4791 9.88873 12.4791 9.99984C12.4791 10.1109 12.4618 10.2151 12.4271 10.3123C12.3923 10.4096 12.3333 10.4998 12.25 10.5832L8.41665 14.4165C8.26387 14.5693 8.06942 14.6457 7.83331 14.6457C7.5972 14.6457 7.40276 14.5693 7.24998 14.4165C7.0972 14.2637 7.02081 14.0693 7.02081 13.8332C7.02081 13.5971 7.0972 13.4026 7.24998 13.2498L10.5 9.99984Z" fill="#1C1C1E"/>
</svg>
