<svg width="28" height="28" viewBox="0 0 28 28" fill="none" xmlns="http://www.w3.org/2000/svg">
<path d="M14 18.1708C13.8445 18.1708 13.6986 18.1465 13.5625 18.0979C13.4264 18.0493 13.3 17.9666 13.1834 17.85L8.98335 13.65C8.75002 13.4166 8.63821 13.1444 8.64794 12.8333C8.65766 12.5222 8.76946 12.25 8.98335 12.0166C9.21669 11.7833 9.49377 11.6618 9.8146 11.652C10.1354 11.6423 10.4125 11.7541 10.6459 11.9875L12.8334 14.175V5.83329C12.8334 5.50274 12.9452 5.22565 13.1688 5.00204C13.3924 4.77843 13.6695 4.66663 14 4.66663C14.3306 4.66663 14.6077 4.77843 14.8313 5.00204C15.0549 5.22565 15.1667 5.50274 15.1667 5.83329V14.175L17.3542 11.9875C17.5875 11.7541 17.8646 11.6423 18.1854 11.652C18.5063 11.6618 18.7834 11.7833 19.0167 12.0166C19.2306 12.25 19.3424 12.5222 19.3521 12.8333C19.3618 13.1444 19.25 13.4166 19.0167 13.65L14.8167 17.85C14.7 17.9666 14.5736 18.0493 14.4375 18.0979C14.3014 18.1465 14.1556 18.1708 14 18.1708ZM7.00002 23.3333C6.35835 23.3333 5.80905 23.1048 5.3521 22.6479C4.89516 22.1909 4.66669 21.6416 4.66669 21V18.6666C4.66669 18.3361 4.77849 18.059 5.0021 17.8354C5.22571 17.6118 5.5028 17.5 5.83335 17.5C6.16391 17.5 6.44099 17.6118 6.6646 17.8354C6.88821 18.059 7.00002 18.3361 7.00002 18.6666V21H21V18.6666C21 18.3361 21.1118 18.059 21.3354 17.8354C21.559 17.6118 21.8361 17.5 22.1667 17.5C22.4972 17.5 22.7743 17.6118 22.9979 17.8354C23.2215 18.059 23.3334 18.3361 23.3334 18.6666V21C23.3334 21.6416 23.1049 22.1909 22.6479 22.6479C22.191 23.1048 21.6417 23.3333 21 23.3333H7.00002Z" fill="#1C1C1E"/>
</svg>
