<svg width="20" height="20" viewBox="0 0 20 20" fill="none" xmlns="http://www.w3.org/2000/svg">
<path d="M5.41666 2.50016C4.79166 2.50016 4.28818 2.84739 3.90624 3.54183C3.5243 4.23627 3.33332 5.00016 3.33332 5.8335C3.33332 6.7085 3.45485 7.4828 3.69791 8.15641C3.94096 8.83002 4.16666 9.3335 4.37499 9.66683L6.66666 9.2085C6.84721 8.76405 7.03124 8.25711 7.21874 7.68766C7.40624 7.11822 7.49999 6.50016 7.49999 5.8335C7.49999 5.00016 7.30902 4.23627 6.92707 3.54183C6.54513 2.84739 6.04166 2.50016 5.41666 2.50016ZM6.56249 13.3335C6.82638 13.3335 7.0486 13.2363 7.22916 13.0418C7.40971 12.8474 7.49999 12.5766 7.49999 12.2293C7.49999 11.9932 7.44443 11.7502 7.33332 11.5002C7.22221 11.2502 7.1111 11.0279 6.99999 10.8335L4.99999 11.2502C4.99999 11.8057 5.12152 12.2918 5.36457 12.7085C5.60763 13.1252 6.00693 13.3335 6.56249 13.3335ZM14.5833 6.66683C13.9583 6.66683 13.4549 7.01405 13.0729 7.7085C12.691 8.40294 12.5 9.16683 12.5 10.0002C12.5 10.6668 12.5937 11.2814 12.7812 11.8439C12.9687 12.4064 13.1528 12.9168 13.3333 13.3752L15.625 13.8335C15.8333 13.5002 16.059 13.0002 16.3021 12.3335C16.5451 11.6668 16.6667 10.8891 16.6667 10.0002C16.6667 9.16683 16.4757 8.40294 16.0937 7.7085C15.7118 7.01405 15.2083 6.66683 14.5833 6.66683ZM13.4375 17.5002C13.993 17.5002 14.3924 17.2918 14.6354 16.8752C14.8785 16.4585 15 15.9724 15 15.4168L13 15.0002C12.8889 15.1946 12.7778 15.4168 12.6667 15.6668C12.5555 15.9168 12.5 16.1599 12.5 16.396C12.5 16.6738 12.5868 16.9272 12.7604 17.1564C12.934 17.3856 13.1597 17.5002 13.4375 17.5002ZM6.56249 15.0002C5.49305 15.0002 4.68055 14.6043 4.12499 13.8127C3.56943 13.021 3.30555 12.1321 3.33332 11.146L2.95832 10.5835C2.80555 10.3474 2.55207 9.81266 2.19791 8.97933C1.84374 8.146 1.66666 7.09739 1.66666 5.8335C1.66666 4.40294 2.02082 3.21197 2.72916 2.26058C3.43749 1.30919 4.33332 0.833496 5.41666 0.833496C6.59721 0.833496 7.51735 1.3578 8.17707 2.40641C8.83679 3.45502 9.16666 4.59739 9.16666 5.8335C9.16666 6.63905 9.05554 7.38211 8.83332 8.06266C8.6111 8.74322 8.41666 9.29183 8.24999 9.7085L8.41666 9.97933C8.52777 10.1738 8.68054 10.4828 8.87499 10.9064C9.06943 11.33 9.16666 11.771 9.16666 12.2293C9.16666 13.021 8.92013 13.6807 8.42707 14.2085C7.93402 14.7363 7.31249 15.0002 6.56249 15.0002ZM13.4375 19.1668C12.6875 19.1668 12.066 18.9029 11.5729 18.3752C11.0799 17.8474 10.8333 17.1877 10.8333 16.396C10.8333 15.9377 10.9305 15.4967 11.125 15.0731C11.3194 14.6495 11.4722 14.3404 11.5833 14.146L11.75 13.8752C11.5833 13.4585 11.3889 12.9099 11.1667 12.2293C10.9444 11.5488 10.8333 10.8057 10.8333 10.0002C10.8333 8.76405 11.1632 7.62169 11.8229 6.57308C12.4826 5.52447 13.4028 5.00016 14.5833 5.00016C15.6667 5.00016 16.5625 5.47586 17.2708 6.42725C17.9792 7.37864 18.3333 8.56961 18.3333 10.0002C18.3333 11.2641 18.1562 12.3092 17.8021 13.1356C17.4479 13.962 17.1944 14.4932 17.0417 14.7293L16.6667 15.3127C16.6805 16.2988 16.4132 17.1877 15.8646 17.9793C15.316 18.771 14.5069 19.1668 13.4375 19.1668Z" fill="#1C1C1E"/>
</svg>
