<svg width="20" height="20" viewBox="0 0 20 20" fill="none" xmlns="http://www.w3.org/2000/svg">
<path d="M4.16667 7.50022C4.16667 8.37522 4.30903 9.20508 4.59375 9.9898C4.87847 10.7745 5.27778 11.4933 5.79167 12.1461C5.94444 12.3405 6.02083 12.5523 6.02083 12.7815C6.02083 13.0106 5.9375 13.2086 5.77083 13.3752C5.59028 13.5419 5.38194 13.6148 5.14583 13.594C4.90972 13.5731 4.71528 13.4655 4.5625 13.2711C3.92361 12.4794 3.42014 11.5905 3.05208 10.6044C2.68403 9.61827 2.5 8.58355 2.5 7.50022C2.5 6.38911 2.68403 5.34049 3.05208 4.35438C3.42014 3.36827 3.92361 2.47938 4.5625 1.68772C4.71528 1.49327 4.90972 1.38563 5.14583 1.3648C5.38194 1.34397 5.59028 1.41688 5.77083 1.58355C5.9375 1.75022 6.02083 1.94813 6.02083 2.1773C6.02083 2.40647 5.94444 2.61827 5.79167 2.81272C5.27778 3.46549 4.87847 4.18772 4.59375 4.97938C4.30903 5.77105 4.16667 6.61133 4.16667 7.50022ZM11.6667 9.58355C11.0833 9.58355 10.5903 9.37869 10.1875 8.96897C9.78472 8.55924 9.58333 8.06966 9.58333 7.50022C9.58333 6.91688 9.78472 6.42383 10.1875 6.02105C10.5903 5.61827 11.0833 5.41688 11.6667 5.41688C12.25 5.41688 12.7431 5.61827 13.1458 6.02105C13.5486 6.42383 13.75 6.91688 13.75 7.50022C13.75 8.06966 13.5486 8.55924 13.1458 8.96897C12.7431 9.37869 12.25 9.58355 11.6667 9.58355ZM15.8333 15.0002C15.8333 14.7641 15.9132 14.5662 16.0729 14.4065C16.2326 14.2467 16.4306 14.1669 16.6667 14.1669C16.9028 14.1669 17.1007 14.2467 17.2604 14.4065C17.4201 14.5662 17.5 14.7641 17.5 15.0002C17.5 15.9169 17.1736 16.7016 16.5208 17.3544C15.8681 18.0072 15.0833 18.3335 14.1667 18.3335C13.3056 18.3335 12.6007 18.1183 12.0521 17.6877C11.5035 17.2572 11.0833 16.6252 10.7917 15.7919C10.5556 15.0974 10.3299 14.6113 10.1146 14.3336C9.89931 14.0558 9.40278 13.6113 8.625 13.0002C7.76389 12.3058 7.08333 11.521 6.58333 10.646C6.08333 9.77105 5.83333 8.72244 5.83333 7.50022C5.83333 5.84744 6.39236 4.46202 7.51042 3.34397C8.62847 2.22591 10.0139 1.66688 11.6667 1.66688C13.3194 1.66688 14.7049 2.22591 15.8229 3.34397C16.941 4.46202 17.5 5.84744 17.5 7.50022C17.5 7.73633 17.4201 7.93424 17.2604 8.09397C17.1007 8.25369 16.9028 8.33355 16.6667 8.33355C16.4306 8.33355 16.2326 8.25369 16.0729 8.09397C15.9132 7.93424 15.8333 7.73633 15.8333 7.50022C15.8333 6.31966 15.434 5.33008 14.6354 4.53147C13.8368 3.73286 12.8472 3.33355 11.6667 3.33355C10.4861 3.33355 9.49653 3.73286 8.69792 4.53147C7.89931 5.33008 7.5 6.31966 7.5 7.50022C7.5 8.44466 7.6875 9.25022 8.0625 9.91688C8.4375 10.5835 8.97222 11.1808 9.66667 11.7085C10.3889 12.2363 10.9514 12.7502 11.3542 13.2502C11.7569 13.7502 12.0556 14.2919 12.25 14.8752C12.4444 15.4863 12.6771 15.9377 12.9479 16.2294C13.2188 16.521 13.625 16.6669 14.1667 16.6669C14.625 16.6669 15.0174 16.5037 15.3438 16.1773C15.6701 15.8509 15.8333 15.4585 15.8333 15.0002Z" fill="#1C1C1E"/>
</svg>
