<svg width="120" height="120" viewBox="0 0 120 120" fill="none" xmlns="http://www.w3.org/2000/svg">
<path d="M35 85V35C35 33.5833 35.4792 32.3958 36.4375 31.4375C37.3958 30.4792 38.5833 30 40 30C41.4167 30 42.6042 30.4792 43.5625 31.4375C44.5208 32.3958 45 33.5833 45 35V85C45 86.4167 44.5208 87.6042 43.5625 88.5625C42.6042 89.5208 41.4167 90 40 90C38.5833 90 37.3958 89.5208 36.4375 88.5625C35.4792 87.6042 35 86.4167 35 85ZM55 105V15C55 13.5833 55.4792 12.3958 56.4375 11.4375C57.3958 10.4792 58.5833 10 60 10C61.4167 10 62.6042 10.4792 63.5625 11.4375C64.5208 12.3958 65 13.5833 65 15V105C65 106.417 64.5208 107.604 63.5625 108.562C62.6042 109.521 61.4167 110 60 110C58.5833 110 57.3958 109.521 56.4375 108.562C55.4792 107.604 55 106.417 55 105ZM15 65V55C15 53.5833 15.4792 52.3958 16.4375 51.4375C17.3958 50.4792 18.5833 50 20 50C21.4167 50 22.6042 50.4792 23.5625 51.4375C24.5208 52.3958 25 53.5833 25 55V65C25 66.4167 24.5208 67.6042 23.5625 68.5625C22.6042 69.5208 21.4167 70 20 70C18.5833 70 17.3958 69.5208 16.4375 68.5625C15.4792 67.6042 15 66.4167 15 65ZM75 85V35C75 33.5833 75.4792 32.3958 76.4375 31.4375C77.3958 30.4792 78.5833 30 80 30C81.4167 30 82.6042 30.4792 83.5625 31.4375C84.5208 32.3958 85 33.5833 85 35V85C85 86.4167 84.5208 87.6042 83.5625 88.5625C82.6042 89.5208 81.4167 90 80 90C78.5833 90 77.3958 89.5208 76.4375 88.5625C75.4792 87.6042 75 86.4167 75 85ZM95 65V55C95 53.5833 95.4792 52.3958 96.4375 51.4375C97.3958 50.4792 98.5833 50 100 50C101.417 50 102.604 50.4792 103.563 51.4375C104.521 52.3958 105 53.5833 105 55V65C105 66.4167 104.521 67.6042 103.563 68.5625C102.604 69.5208 101.417 70 100 70C98.5833 70 97.3958 69.5208 96.4375 68.5625C95.4792 67.6042 95 66.4167 95 65Z" fill="#FFC400"/>
</svg>
