<svg width="20" height="20" viewBox="0 0 20 20" fill="none" xmlns="http://www.w3.org/2000/svg">
<path d="M11.9584 17.3126L7.50006 15.7501L3.62506 17.2501C3.48617 17.3056 3.35076 17.323 3.21881 17.3022C3.08687 17.2813 2.96534 17.2362 2.85423 17.1667C2.74312 17.0973 2.65631 17.0036 2.59381 16.8855C2.53131 16.7674 2.50006 16.632 2.50006 16.4792V4.79175C2.50006 4.61119 2.55214 4.45147 2.65631 4.31258C2.76048 4.17369 2.90284 4.06953 3.08339 4.00008L6.95839 2.68758C7.04173 2.6598 7.12853 2.63897 7.21881 2.62508C7.30909 2.61119 7.40284 2.60425 7.50006 2.60425C7.59728 2.60425 7.69103 2.61119 7.78131 2.62508C7.87159 2.63897 7.95839 2.6598 8.04173 2.68758L12.5001 4.25008L16.3751 2.75008C16.514 2.69453 16.6494 2.67716 16.7813 2.698C16.9133 2.71883 17.0348 2.76397 17.1459 2.83341C17.257 2.90286 17.3438 2.99661 17.4063 3.11466C17.4688 3.23272 17.5001 3.36814 17.5001 3.52091V15.2084C17.5001 15.389 17.448 15.5487 17.3438 15.6876C17.2396 15.8265 17.0973 15.9306 16.9167 16.0001L13.0417 17.3126C12.9584 17.3404 12.8716 17.3612 12.7813 17.3751C12.691 17.389 12.5973 17.3959 12.5001 17.3959C12.4028 17.3959 12.3091 17.389 12.2188 17.3751C12.1285 17.3612 12.0417 17.3404 11.9584 17.3126ZM11.6667 15.4584V5.70841L8.33339 4.54175V14.2917L11.6667 15.4584ZM13.3334 15.4584L15.8334 14.6251V4.75008L13.3334 5.70841V15.4584ZM4.16673 15.2501L6.66673 14.2917V4.54175L4.16673 5.37508V15.2501Z" fill="#1C1C1E"/>
</svg>
