<svg width="48" height="48" viewBox="0 0 48 48" fill="none" xmlns="http://www.w3.org/2000/svg">
<path d="M33 34V14C33 13.4333 33.1917 12.9583 33.575 12.575C33.9583 12.1917 34.4333 12 35 12C35.5667 12 36.0417 12.1917 36.425 12.575C36.8083 12.9583 37 13.4333 37 14V34C37 34.5667 36.8083 35.0417 36.425 35.425C36.0417 35.8083 35.5667 36 35 36C34.4333 36 33.9583 35.8083 33.575 35.425C33.1917 35.0417 33 34.5667 33 34ZM11 32.25V15.75C11 15.15 11.2 14.6667 11.6 14.3C12 13.9333 12.4667 13.75 13 13.75C13.1667 13.75 13.35 13.7667 13.55 13.8C13.75 13.8333 13.9333 13.9167 14.1 14.05L26.5 22.35C26.8 22.55 27.025 22.7917 27.175 23.075C27.325 23.3583 27.4 23.6667 27.4 24C27.4 24.3333 27.325 24.6417 27.175 24.925C27.025 25.2083 26.8 25.45 26.5 25.65L14.1 33.95C13.9333 34.0833 13.75 34.1667 13.55 34.2C13.35 34.2333 13.1667 34.25 13 34.25C12.4667 34.25 12 34.0667 11.6 33.7C11.2 33.3333 11 32.85 11 32.25Z" fill="#1C1C1E"/>
</svg>
