<svg width="48" height="48" viewBox="0 0 48 48" fill="none" xmlns="http://www.w3.org/2000/svg">
<rect x="14" y="14" width="20" height="20" fill="white"/>
<path d="M19.4 33.2C20.0517 33.2 20.5979 32.9796 21.0388 32.5388C21.4796 32.0979 21.7 31.5517 21.7 30.9V17.1C21.7 16.4483 21.4796 15.9021 21.0388 15.4613C20.5979 15.0204 20.0517 14.8 19.4 14.8C18.7483 14.8 18.2021 15.0204 17.7613 15.4613C17.3204 15.9021 17.1 16.4483 17.1 17.1V30.9C17.1 31.5517 17.3204 32.0979 17.7613 32.5388C18.2021 32.9796 18.7483 33.2 19.4 33.2ZM28.6 33.2C29.2517 33.2 29.7979 32.9796 30.2388 32.5388C30.6796 32.0979 30.9 31.5517 30.9 30.9V17.1C30.9 16.4483 30.6796 15.9021 30.2388 15.4613C29.7979 15.0204 29.2517 14.8 28.6 14.8C27.9483 14.8 27.4021 15.0204 26.9613 15.4613C26.5204 15.9021 26.3 16.4483 26.3 17.1V30.9C26.3 31.5517 26.5204 32.0979 26.9613 32.5388C27.4021 32.9796 27.9483 33.2 28.6 33.2ZM24 47C20.8183 47 17.8283 46.3963 15.03 45.1888C12.2317 43.9813 9.7975 42.3425 7.7275 40.2725C5.6575 38.2025 4.01875 35.7683 2.81125 32.97C1.60375 30.1717 1 27.1817 1 24C1 20.8183 1.60375 17.8283 2.81125 15.03C4.01875 12.2317 5.6575 9.7975 7.7275 7.7275C9.7975 5.6575 12.2317 4.01875 15.03 2.81125C17.8283 1.60375 20.8183 1 24 1C27.1817 1 30.1717 1.60375 32.97 2.81125C35.7683 4.01875 38.2025 5.6575 40.2725 7.7275C42.3425 9.7975 43.9813 12.2317 45.1888 15.03C46.3963 17.8283 47 20.8183 47 24C47 27.1817 46.3963 30.1717 45.1888 32.97C43.9813 35.7683 42.3425 38.2025 40.2725 40.2725C38.2025 42.3425 35.7683 43.9813 32.97 45.1888C30.1717 46.3963 27.1817 47 24 47Z" fill="black"/>
</svg>
