<svg width="48" height="48" viewBox="0 0 48 48" fill="none" xmlns="http://www.w3.org/2000/svg">
<rect x="15.7241" y="15.7241" width="16.5517" height="16.5517" fill="white"/>
<path d="M21.0861 32.1325L31.6125 25.3707C32.1297 25.0424 32.3883 24.5863 32.3883 24.0023C32.3883 23.4182 32.1297 22.9605 31.6125 22.629L21.0861 15.8672C20.544 15.4954 19.9877 15.4656 19.4174 15.7777C18.8475 16.0899 18.5625 16.5766 18.5625 17.238V30.7617C18.5625 31.423 18.8475 31.9098 19.4174 32.2219C19.9877 32.5341 20.544 32.5043 21.0861 32.1325ZM24.0042 46.9582C20.8287 46.9582 17.844 46.3556 15.0499 45.1505C12.2558 43.9454 9.82546 42.3099 7.75881 40.2441C5.69216 38.1782 4.05587 35.7489 2.84996 32.956C1.64444 30.1631 1.04169 27.1792 1.04169 24.0041C1.04169 20.8286 1.64424 17.8438 2.84935 15.0497C4.05446 12.2556 5.68994 9.82528 7.75579 7.75863C9.82164 5.69198 12.251 4.05569 15.0439 2.84977C17.8367 1.64426 20.8207 1.0415 23.9958 1.0415C27.1713 1.0415 30.1561 1.64406 32.9501 2.84917C35.7442 4.05428 38.1746 5.68976 40.2412 7.75561C42.3079 9.82146 43.9442 12.2508 45.1501 15.0437C46.3556 17.8365 46.9584 20.8205 46.9584 23.9956C46.9584 27.1711 46.3558 30.1559 45.1507 32.95C43.9456 35.744 42.3101 38.1744 40.2442 40.241C38.1784 42.3077 35.749 43.944 32.9562 45.1499C30.1633 46.3554 27.1793 46.9582 24.0042 46.9582Z" fill="#1C1C1E"/>
</svg>
