<svg width="48" height="48" viewBox="0 0 48 48" fill="none" xmlns="http://www.w3.org/2000/svg">
<path d="M11 34V14C11 13.4333 11.1917 12.9583 11.575 12.575C11.9583 12.1917 12.4333 12 13 12C13.5667 12 14.0417 12.1917 14.425 12.575C14.8083 12.9583 15 13.4333 15 14V34C15 34.5667 14.8083 35.0417 14.425 35.425C14.0417 35.8083 13.5667 36 13 36C12.4333 36 11.9583 35.8083 11.575 35.425C11.1917 35.0417 11 34.5667 11 34ZM33.9 33.95L21.5 25.65C21.2 25.45 20.975 25.2083 20.825 24.925C20.675 24.6417 20.6 24.3333 20.6 24C20.6 23.6667 20.675 23.3583 20.825 23.075C20.975 22.7917 21.2 22.55 21.5 22.35L33.9 14.05C34.0667 13.9167 34.25 13.8333 34.45 13.8C34.65 13.7667 34.8333 13.75 35 13.75C35.5333 13.75 36 13.9333 36.4 14.3C36.8 14.6667 37 15.15 37 15.75V32.25C37 32.85 36.8 33.3333 36.4 33.7C36 34.0667 35.5333 34.25 35 34.25C34.8333 34.25 34.65 34.2333 34.45 34.2C34.25 34.1667 34.0667 34.0833 33.9 33.95Z" fill="#1C1C1E"/>
</svg>
