<svg width="20" height="20" viewBox="0 0 20 20" fill="none" xmlns="http://www.w3.org/2000/svg">
<path d="M7.50004 15H12.5C12.7362 15 12.9341 14.9202 13.0938 14.7604C13.2535 14.6007 13.3334 14.4028 13.3334 14.1667C13.3334 13.9306 13.2535 13.7327 13.0938 13.5729C12.9341 13.4132 12.7362 13.3334 12.5 13.3334H7.50004C7.26393 13.3334 7.06601 13.4132 6.90629 13.5729C6.74657 13.7327 6.66671 13.9306 6.66671 14.1667C6.66671 14.4028 6.74657 14.6007 6.90629 14.7604C7.06601 14.9202 7.26393 15 7.50004 15ZM7.50004 11.6667H12.5C12.7362 11.6667 12.9341 11.5868 13.0938 11.4271C13.2535 11.2674 13.3334 11.0695 13.3334 10.8334C13.3334 10.5972 13.2535 10.3993 13.0938 10.2396C12.9341 10.0799 12.7362 10 12.5 10H7.50004C7.26393 10 7.06601 10.0799 6.90629 10.2396C6.74657 10.3993 6.66671 10.5972 6.66671 10.8334C6.66671 11.0695 6.74657 11.2674 6.90629 11.4271C7.06601 11.5868 7.26393 11.6667 7.50004 11.6667ZM5.00004 18.3334C4.54171 18.3334 4.14935 18.1702 3.82296 17.8438C3.49657 17.5174 3.33337 17.125 3.33337 16.6667V3.33335C3.33337 2.87502 3.49657 2.48266 3.82296 2.15627C4.14935 1.82988 4.54171 1.66669 5.00004 1.66669H10.9792C11.2014 1.66669 11.4132 1.70835 11.6146 1.79169C11.816 1.87502 11.9931 1.99308 12.1459 2.14585L16.1875 6.18752C16.3403 6.3403 16.4584 6.51738 16.5417 6.71877C16.625 6.92016 16.6667 7.13196 16.6667 7.35419V16.6667C16.6667 17.125 16.5035 17.5174 16.1771 17.8438C15.8507 18.1702 15.4584 18.3334 15 18.3334H5.00004ZM10.8334 6.66669V3.33335H5.00004V16.6667H15V7.50002H11.6667C11.4306 7.50002 11.2327 7.42016 11.073 7.26044C10.9132 7.10071 10.8334 6.9028 10.8334 6.66669Z" fill="#E5E5EA"/>
</svg>
