<svg width="21" height="20" viewBox="0 0 21 20" fill="none" xmlns="http://www.w3.org/2000/svg">
<path d="M8.33335 15.0001H13.3334C13.5695 15.0001 13.7674 14.9202 13.9271 14.7605C14.0868 14.6008 14.1667 14.4029 14.1667 14.1667C14.1667 13.9306 14.0868 13.7327 13.9271 13.573C13.7674 13.4133 13.5695 13.3334 13.3334 13.3334H8.33335C8.09724 13.3334 7.89933 13.4133 7.7396 13.573C7.57988 13.7327 7.50002 13.9306 7.50002 14.1667C7.50002 14.4029 7.57988 14.6008 7.7396 14.7605C7.89933 14.9202 8.09724 15.0001 8.33335 15.0001ZM8.33335 11.6667H13.3334C13.5695 11.6667 13.7674 11.5869 13.9271 11.4272C14.0868 11.2674 14.1667 11.0695 14.1667 10.8334C14.1667 10.5973 14.0868 10.3994 13.9271 10.2397C13.7674 10.0799 13.5695 10.0001 13.3334 10.0001H8.33335C8.09724 10.0001 7.89933 10.0799 7.7396 10.2397C7.57988 10.3994 7.50002 10.5973 7.50002 10.8334C7.50002 11.0695 7.57988 11.2674 7.7396 11.4272C7.89933 11.5869 8.09724 11.6667 8.33335 11.6667ZM5.83335 18.3334C5.37502 18.3334 4.98266 18.1702 4.65627 17.8438C4.32988 17.5174 4.16669 17.1251 4.16669 16.6667V3.33341C4.16669 2.87508 4.32988 2.48272 4.65627 2.15633C4.98266 1.82994 5.37502 1.66675 5.83335 1.66675H11.8125C12.0347 1.66675 12.2465 1.70841 12.4479 1.79175C12.6493 1.87508 12.8264 1.99314 12.9792 2.14591L17.0209 6.18758C17.1736 6.34036 17.2917 6.51744 17.375 6.71883C17.4584 6.92022 17.5 7.13203 17.5 7.35425V16.6667C17.5 17.1251 17.3368 17.5174 17.0104 17.8438C16.684 18.1702 16.2917 18.3334 15.8334 18.3334H5.83335ZM11.6667 6.66675V3.33341H5.83335V16.6667H15.8334V7.50008H12.5C12.2639 7.50008 12.066 7.42022 11.9063 7.2605C11.7465 7.10078 11.6667 6.90286 11.6667 6.66675Z" fill="#1C1C1E"/>
</svg>
